<svg width="64" height="64" viewBox="0 0 64 64" xmlns="http://www.w3.org/2000/svg">
  <defs>
    <linearGradient id="bg" x1="0" y1="0" x2="1" y2="1">
      <stop offset="0" stop-color="#1a0d2e"/>
      <stop offset="1" stop-color="#0b0512"/>
    </linearGradient>
  </defs>
  <rect width="64" height="64" rx="14" fill="url(#bg)"/>
  <g transform="translate(8 8) scale(0.1032)">
    <path fill-rule="evenodd" clip-rule="evenodd" d="M151.318 96.3453C187.144 84.7045 225.737 84.7046 261.564 96.3453C297.391 107.986 328.613 130.67 350.755 161.147C372.898 191.623 384.823 228.327 384.823 265.997C384.823 303.668 372.897 340.371 350.755 370.847C328.613 401.323 297.391 424.008 261.564 435.648C225.737 447.289 187.144 447.289 151.318 435.648C115.491 424.008 84.269 401.323 62.1268 370.847C39.9847 340.371 28.0586 303.668 28.0586 265.997C28.0586 228.327 39.9846 191.623 62.1268 161.147C84.269 130.671 115.491 107.986 151.318 96.3453ZM217.271 95.8726C210.232 93.5855 202.65 93.5855 195.611 95.8726C188.572 98.1597 182.437 102.616 178.087 108.604C173.737 114.592 171.394 121.803 171.394 129.205C171.394 136.606 173.737 143.817 178.087 149.804C182.437 155.792 188.572 160.249 195.611 162.536C202.65 164.823 210.232 164.823 217.271 162.536C224.31 160.249 230.444 155.792 234.794 149.804C239.145 143.817 241.487 136.606 241.487 129.205C241.487 121.803 239.145 114.592 234.794 108.604C230.444 102.616 224.31 98.1597 217.271 95.8726Z" fill="#E64FA9"/>
    <path d="M412.794 177.358C390.157 125.102 348.558 82.9717 296.676 59.6436H412.794V177.358Z" fill="#6D29D9"/>
  </g>
</svg>
